<svg xmlns="http://www.w3.org/2000/svg" version="1.1" xmlns:xlink="http://www.w3.org/1999/xlink" xmlns:svgjs="http://svgjs.dev/svgjs" width="1000" height="1000" viewBox="0 0 1000 1000"><rect width="1000" height="1000" fill="#ffffff"></rect><g transform="matrix(0.7,0,0,0.7,149.84897959183667,150.19913061224486)"><svg viewBox="0 0 343 343" data-background-color="#ffffff" preserveAspectRatio="xMidYMid meet" height="999" width="1000" xmlns="http://www.w3.org/2000/svg" xmlns:xlink="http://www.w3.org/1999/xlink"><g id="tight-bounds" transform="matrix(1,0,0,1,0.0740000000000407,0.07400000000001228)"><svg viewBox="0 0 342.85155851775386 342.85155851775386" height="342.85155851775386" width="342.85155851775386"><g><svg></svg></g><g><svg viewBox="0 0 342.85155851775386 342.85155851775386" height="342.85155851775386" width="342.85155851775386"><g><path d="M0 171.426c0-94.676 76.75-171.426 171.426-171.426 94.676 0 171.426 76.75 171.426 171.426 0 94.676-76.75 171.426-171.426 171.426-94.676 0-171.426-76.75-171.426-171.426zM171.426 340.386c93.314 0 168.961-75.646 168.96-168.96 0-93.314-75.646-168.961-168.96-168.961-93.314 0-168.961 75.646-168.961 168.961 0 93.314 75.646 168.961 168.961 168.96z" data-fill-palette-color="tertiary" fill="#00ebff" stroke="transparent"></path><ellipse rx="164.56874808852186" ry="164.56874808852186" cx="171.42577925887693" cy="171.42577925887693" fill="#00ebff" stroke="transparent" stroke-width="0" fill-opacity="1" data-fill-palette-color="tertiary"></ellipse></g><g transform="matrix(1,0,0,1,64.84655864529837,115.98350298541794)"><svg viewBox="0 0 213.1584412271571 110.88455254691796" height="110.88455254691796" width="213.1584412271571"><g><svg viewBox="0 0 213.1584412271571 110.88455254691796" height="110.88455254691796" width="213.1584412271571"><g><svg viewBox="0 0 213.1584412271571 110.88455254691796" height="110.88455254691796" width="213.1584412271571"><g transform="matrix(1,0,0,1,0,67.04269441309512)"><svg viewBox="0 0 213.1584412271571 43.84185813382284" height="43.84185813382284" width="213.1584412271571"><g><svg viewBox="0 0 213.1584412271571 43.84185813382284" height="43.84185813382284" width="213.1584412271571"><g><svg viewBox="0 0 213.1584412271571 27.335461767193408" height="27.335461767193408" width="213.1584412271571"><g transform="matrix(1,0,0,1,0,0)"><svg width="213.1584412271571" viewBox="4.150000095367432 -37 293.1700134277344 37.599998474121094" height="27.335461767193408" data-palette-color="#ffffff"><path d="M8.15 0L4.15 0 4.15-34.9 17-34.9Q25.65-34.9 25.65-24.95L25.65-24.95Q25.65-15 17-15L17-15 8.15-15 8.15 0ZM8.15-31.4L8.15-18.5 16.9-18.5Q21.35-18.5 21.35-23.3L21.35-23.3 21.35-26.6Q21.35-31.4 16.9-31.4L16.9-31.4 8.15-31.4ZM34.5 0L30.7 0 30.7-25.8 34.5-25.8 34.5-21 35-21Q35.65-23.25 37.22-24.53 38.8-25.8 41.35-25.8L41.35-25.8 42.75-25.8 42.75-21.95 40.25-21.95Q37.55-21.95 36.02-20.75 34.5-19.55 34.5-17.15L34.5-17.15 34.5 0ZM56 0.6L56 0.6Q53.75 0.6 51.8-0.15 49.85-0.9 48.45-2.55 47.05-4.2 46.25-6.75 45.45-9.3 45.45-12.9L45.45-12.9Q45.45-16.5 46.25-19.05 47.05-21.6 48.45-23.25 49.85-24.9 51.8-25.65 53.75-26.4 56-26.4L56-26.4Q58.25-26.4 60.12-25.65 62-24.9 63.3-23.25 64.59-21.6 65.32-19.05 66.05-16.5 66.05-12.9L66.05-12.9 66.05-11.95 49.5-11.95 49.5-10.3Q49.5-6.5 51.22-4.63 52.95-2.75 56-2.75L56-2.75Q58.6-2.75 60.25-3.88 61.9-5 62.85-7.25L62.85-7.25 65.45-5.35Q64.25-2.7 61.92-1.05 59.59 0.6 56 0.6ZM56-23.2L56-23.2Q52.9-23.2 51.2-21.25 49.5-19.3 49.5-15.5L49.5-15.5 49.5-14.85 62-14.85 62-15.5Q62-23.2 56-23.2ZM79.09 0.6L79.09 0.6Q75.89 0.6 73.62-0.7 71.34-2 69.74-4.3L69.74-4.3 72.39-6.5Q73.74-4.6 75.32-3.6 76.89-2.6 79.09-2.6L79.09-2.6Q81.34-2.6 82.67-3.73 83.99-4.85 83.99-6.95L83.99-6.95Q83.99-8.65 83.14-9.7 82.29-10.75 79.99-11.15L79.99-11.15 78.04-11.5Q74.29-12.2 72.47-13.85 70.64-15.5 70.64-18.85L70.64-18.85Q70.64-20.8 71.24-22.23 71.84-23.65 72.94-24.58 74.04-25.5 75.57-25.93 77.09-26.35 78.89-26.35L78.89-26.35Q81.79-26.35 83.77-25.33 85.74-24.3 87.19-22.35L87.19-22.35 84.74-20.1Q83.89-21.3 82.49-22.23 81.09-23.15 78.89-23.15L78.89-23.15Q74.34-23.15 74.34-19L74.34-19Q74.34-17.1 75.32-16.23 76.29-15.35 78.49-14.95L78.49-14.95 80.44-14.6Q84.39-13.9 86.04-12.15 87.69-10.4 87.69-7.4L87.69-7.4Q87.69-3.65 85.52-1.53 83.34 0.6 79.09 0.6ZM102.69 0.6L102.69 0.6Q100.44 0.6 98.49-0.15 96.54-0.9 95.14-2.55 93.74-4.2 92.94-6.75 92.14-9.3 92.14-12.9L92.14-12.9Q92.14-16.5 92.94-19.05 93.74-21.6 95.14-23.25 96.54-24.9 98.49-25.65 100.44-26.4 102.69-26.4L102.69-26.4Q104.94-26.4 106.82-25.65 108.69-24.9 109.99-23.25 111.29-21.6 112.02-19.05 112.74-16.5 112.74-12.9L112.74-12.9 112.74-11.95 96.19-11.95 96.19-10.3Q96.19-6.5 97.92-4.63 99.64-2.75 102.69-2.75L102.69-2.75Q105.29-2.75 106.94-3.88 108.59-5 109.54-7.25L109.54-7.25 112.14-5.35Q110.94-2.7 108.62-1.05 106.29 0.6 102.69 0.6ZM102.69-23.2L102.69-23.2Q99.59-23.2 97.89-21.25 96.19-19.3 96.19-15.5L96.19-15.5 96.19-14.85 108.69-14.85 108.69-15.5Q108.69-23.2 102.69-23.2ZM122.44 0L118.64 0 118.64-25.8 122.44-25.8 122.44-21.6 122.94-21.6Q123.69-24 125.26-25.2 126.84-26.4 129.54-26.4L129.54-26.4Q132.99-26.4 134.96-24.05 136.94-21.7 136.94-16.8L136.94-16.8 136.94 0 133.14 0 133.14-16.55Q133.14-19.65 131.86-21.3 130.59-22.95 127.94-22.95L127.94-22.95Q125.64-22.95 124.04-21.55 122.44-20.15 122.44-17.6L122.44-17.6 122.44 0ZM154.14 0L149.49 0Q147.44 0 146.51-0.93 145.59-1.85 145.59-3.9L145.59-3.9 145.59-22.45 141.79-22.45 141.79-25.8 144.04-25.8Q145.19-25.8 145.56-26.38 145.94-26.95 145.94-28.1L145.94-28.1 145.94-32.9 149.39-32.9 149.39-25.8 154.39-25.8 154.39-22.45 149.39-22.45 149.39-3.35 154.14-3.35 154.14 0ZM195.48 0L195.48-23.95 195.83-29.95 195.33-29.95 192.73-23.95 185.23-8.55 177.73-23.95 175.13-29.85 174.63-29.85 174.98-23.95 174.98 0 171.08 0 171.08-34.9 176.38-34.9 182.68-21.35 185.03-14.9 185.43-14.9 187.78-21.35 194.08-34.9 199.38-34.9 199.38 0 195.48 0ZM226.28 0L223.58 0Q219.88 0 219.88-3.7L219.88-3.7 219.88-4.2 219.38-4.2Q218.73-1.85 217-0.63 215.28 0.6 212.88 0.6L212.88 0.6Q209.13 0.6 207.28-1.3 205.43-3.2 205.43-6.9L205.43-6.9Q205.43-10.5 207.8-12.6 210.18-14.7 215.23-14.7L215.23-14.7 219.88-14.7 219.88-17.55Q219.88-20.4 218.6-21.75 217.33-23.1 214.58-23.1L214.58-23.1Q212.33-23.1 210.95-22.13 209.58-21.15 208.58-19.3L208.58-19.3 206.33-21.4Q207.33-23.5 209.53-24.93 211.73-26.35 214.73-26.35L214.73-26.35Q219.13-26.35 221.4-24.23 223.68-22.1 223.68-17.95L223.68-17.95 223.68-3.35 226.28-3.35 226.28 0ZM213.83-2.7L213.83-2.7Q215.13-2.7 216.25-3.15 217.38-3.6 218.18-4.33 218.98-5.05 219.43-5.98 219.88-6.9 219.88-7.9L219.88-7.9 219.88-11.8 215.13-11.8Q212.13-11.8 210.75-10.8 209.38-9.8 209.38-7.9L209.38-7.9 209.38-6.5Q209.38-4.55 210.58-3.63 211.78-2.7 213.83-2.7ZM233.58-23.15L230.18-23.15 230.18-37 233.58-37 233.58-23.15ZM260.17 0L257.47 0Q253.77 0 253.77-3.7L253.77-3.7 253.77-4.2 253.27-4.2Q252.62-1.85 250.9-0.63 249.17 0.6 246.77 0.6L246.77 0.6Q243.02 0.6 241.17-1.3 239.32-3.2 239.32-6.9L239.32-6.9Q239.32-10.5 241.7-12.6 244.07-14.7 249.12-14.7L249.12-14.7 253.77-14.7 253.77-17.55Q253.77-20.4 252.5-21.75 251.22-23.1 248.47-23.1L248.47-23.1Q246.22-23.1 244.85-22.13 243.47-21.15 242.47-19.3L242.47-19.3 240.22-21.4Q241.22-23.5 243.42-24.93 245.62-26.35 248.62-26.35L248.62-26.35Q253.02-26.35 255.3-24.23 257.57-22.1 257.57-17.95L257.57-17.95 257.57-3.35 260.17-3.35 260.17 0ZM247.72-2.7L247.72-2.7Q249.02-2.7 250.15-3.15 251.27-3.6 252.07-4.33 252.87-5.05 253.32-5.98 253.77-6.9 253.77-7.9L253.77-7.9 253.77-11.8 249.02-11.8Q246.02-11.8 244.65-10.8 243.27-9.8 243.27-7.9L243.27-7.9 243.27-6.5Q243.27-4.55 244.47-3.63 245.67-2.7 247.72-2.7ZM269.12 0L265.32 0 265.32-25.8 269.12-25.8 269.12-21.6 269.62-21.6Q270.37-24 271.82-25.2 273.27-26.4 275.92-26.4L275.92-26.4Q278.32-26.4 280-25.23 281.67-24.05 282.52-21.6L282.52-21.6 283.02-21.6Q283.82-24 285.52-25.2 287.22-26.4 290.02-26.4L290.02-26.4Q293.32-26.4 295.32-24.05 297.32-21.7 297.32-16.8L297.32-16.8 297.32 0 293.52 0 293.52-16.55Q293.52-19.65 292.3-21.3 291.07-22.95 288.52-22.95L288.52-22.95Q286.27-22.95 284.75-21.55 283.22-20.15 283.22-17.6L283.22-17.6 283.22 0 279.42 0 279.42-16.55Q279.42-19.65 278.2-21.3 276.97-22.95 274.42-22.95L274.42-22.95Q272.17-22.95 270.65-21.55 269.12-20.15 269.12-17.6L269.12-17.6 269.12 0Z" opacity="1" transform="matrix(1,0,0,1,0,0)" fill="#ffffff" class="undefined-text-0" data-fill-palette-color="quaternary" id="text-0"></path></svg></g></svg></g><g transform="matrix(1,0,0,1,0,33.78870823934536)"><svg viewBox="0 0 213.1584412271571 10.05314989447748" height="10.05314989447748" width="213.1584412271571"><g transform="matrix(1,0,0,1,0,0)"><svg width="213.1584412271571" viewBox="-0.699999988079071 -26.149999618530273 673.1500244140625 31.75" height="10.05314989447748" data-palette-color="#ffffff"><path d="M21.15-22L21.15-22Q19.15-22.3 16.88-22.3 14.6-22.3 12.45-22L12.45-22Q13.8-19.7 15.65-18.25 17.5-16.8 20.33-15.38 23.15-13.95 24.93-12.75 26.7-11.55 28.85-8.8 31-6.05 31.55-3.05L31.55-3.05Q29.15 0.05 25.2 2.43 21.25 4.8 17.1 5.6L17.1 5.6Q14.3 5.35 10.03 4.03 5.75 2.7 3.6 2.7 1.45 2.7-0.7 4.05L-0.7 4.05Q0.2 1.5 2.25-2.35L2.25-2.35 2.65-2.35Q5.85-2.35 8.68-1.35 11.5-0.35 13.83 0.65 16.15 1.65 17.57 1.65 19 1.65 19.65 1.45L19.65 1.45Q19.65-1.85 17.6-4L17.6-4Q16.5-5.15 15.73-5.78 14.95-6.4 13.35-7.5L13.35-7.5 12.5-8.1Q9.1-10.45 6.9-12.88 4.7-15.3 3.7-18.85L3.7-18.85Q5.3-22.4 6.85-25L6.85-25Q11.6-26.15 16.7-26.15L16.7-26.15 18.9-26.15Q23.2-26.15 28.75-24.95L28.75-24.95Q27.95-21.65 26.8-19L26.8-19Q22.6-18.7 20.3-18.7L20.3-18.7Q20.75-19.85 21.15-22ZM64.6-22.7L64.6-22.7Q64.6-24.05 64.2-25L64.2-25 78.45-25Q80.25-20.2 81.12-13.25 82-6.3 82.05 0L82.05 0 70.5 0Q70.15-9 67.55-17.35L67.55-17.35Q63.2-8.85 62.85 0L62.85 0 53.05 0Q51.75-9.8 48.05-17.4L48.05-17.4Q45.35-11.05 45.35-5.6L45.35-5.6Q45.35-2.65 46.05 0L46.05 0 33.9 0Q33.55-2.05 33.55-5.43 33.55-8.8 34.55-12.2L34.55-12.2Q38.1-13.25 41.37-15.65 44.65-18.05 46.2-20.9L46.2-20.9Q44.9-23.05 43.45-25L43.45-25 59.25-25Q61.15-19.85 62.1-13.8L62.1-13.8Q64.6-18.45 64.6-22.7ZM118.84-0.4L118.84-0.4 118.84 0 107.25 0Q107.05-2.75 106.39-5.9L106.39-5.9Q102.89-2.4 99.39 0L99.39 0 87.75 0Q87.39-2.05 87.39-5.43 87.39-8.8 88.39-12.2L88.39-12.2Q92-13.25 95.32-15.75 98.64-18.25 100.14-21.15L100.14-21.15Q98.75-23.35 97.3-25L97.3-25 113.89-25Q118.84-14.15 118.84-0.4ZM105.5-9.55L105.5-9.55Q104.25-13.85 102.09-17.95L102.09-17.95Q99.75-11.05 99.39-4.9L99.39-4.9Q103.09-6.9 105.5-9.55ZM150.84-16.3L150.84-16.3 150.79-14.6Q146.79-12.45 140.79-11.25L140.79-11.25Q145.09-10.1 149.09-10.1L149.09-10.1 150.14-10.1Q152.89-6.05 153.69 0L153.69 0 140.74 0Q140.24-3.5 138.72-6.03 137.19-8.55 134.99-9.45L134.99-9.45Q134.94-8.6 134.94-6.05 134.94-3.5 135.24 0L135.24 0 124.34 0Q122.89-7.25 122.89-13.48 122.89-19.7 123.59-25L123.59-25 149.69-25Q150.84-19.95 150.84-16.3ZM136.04-21.65L136.04-21.65Q135.44-17.25 135.14-13L135.14-13Q137.89-13.4 139.64-14.95L139.64-14.95Q138.69-18.3 136.04-21.65ZM178.64-21.75L178.64-21.75Q177.34-13.85 177.34-8.85 177.34-3.85 177.74 0L177.74 0 166.84 0Q165.14-7.95 165.14-17.1L165.14-17.1Q165.14-18.65 165.24-21.75L165.24-21.75Q160.99-20.5 160.04-16L160.04-16 155.09-16.3 156.89-25 190.14-25Q189.14-19.5 187.84-16L187.84-16 182.79-16.3Q182.99-17.1 182.99-17.9L182.99-17.9Q182.99-19.85 181.79-20.8 180.59-21.75 178.64-21.75ZM242.29-0.4L242.29-0.4 242.29 0 230.69 0Q230.49-2.75 229.84-5.9L229.84-5.9Q226.34-2.4 222.84 0L222.84 0 211.19 0Q210.84-2.05 210.84-5.43 210.84-8.8 211.84-12.2L211.84-12.2Q215.44-13.25 218.76-15.75 222.09-18.25 223.59-21.15L223.59-21.15Q222.19-23.35 220.74-25L220.74-25 237.34-25Q242.29-14.15 242.29-0.4ZM228.94-9.55L228.94-9.55Q227.69-13.85 225.54-17.95L225.54-17.95Q223.19-11.05 222.84-4.9L222.84-4.9Q226.54-6.9 228.94-9.55ZM266.78-21.75L266.78-21.75Q265.48-13.85 265.48-8.85 265.48-3.85 265.88 0L265.88 0 254.98 0Q253.28-7.95 253.28-17.1L253.28-17.1Q253.28-18.65 253.38-21.75L253.38-21.75Q249.13-20.5 248.18-16L248.18-16 243.23-16.3 245.03-25 278.28-25Q277.28-19.5 275.98-16L275.98-16 270.93-16.3Q271.13-17.1 271.13-17.9L271.13-17.9Q271.13-19.85 269.93-20.8 268.73-21.75 266.78-21.75ZM302.03-21.75L302.03-21.75Q300.73-13.85 300.73-8.85 300.73-3.85 301.13 0L301.13 0 290.23 0Q288.53-7.95 288.53-17.1L288.53-17.1Q288.53-18.65 288.63-21.75L288.63-21.75Q284.38-20.5 283.43-16L283.43-16 278.48-16.3 280.28-25 313.53-25Q312.53-19.5 311.23-16L311.23-16 306.18-16.3Q306.38-17.1 306.38-17.9L306.38-17.9Q306.38-19.85 305.18-20.8 303.98-21.75 302.03-21.75ZM334.43-14.95L334.43-14.95 339.13-14.65Q339.83-14.65 340.18-14.7L340.18-14.7 337.83-10.3 337.38-10.3Q336.43-10.3 334.68-10.83 332.93-11.35 332.18-11.35L332.18-11.35Q330.13-11.35 328.93-8.7L328.93-8.7Q328.73-6.25 328.63-3.8L328.63-3.8Q331.23-3.3 332.73-3.3L332.73-3.3 333.18-3.3Q335.33-3.3 336.6-4.25 337.88-5.2 338.43-7.65L338.43-7.65 344.43-7.4Q343.68-3.1 342.43 0L342.43 0 317.88 0Q316.88-6.75 316.88-13.4 316.88-20.05 317.58-25L317.58-25 344.38-25Q343.48-19.6 342.78-17.4L342.78-17.4Q339.83-17.25 337.38-17.2L337.38-17.2Q337.78-18.35 337.78-19.35L337.78-19.35Q337.78-21.75 334.18-21.75L334.18-21.75Q332.83-21.75 331.18-21.45L331.18-21.45Q330.08-16.7 329.48-13.1L329.48-13.1Q331.48-14.95 334.43-14.95ZM373.58-25L379.53-25Q379.83-19.75 379.83-13.93 379.83-8.1 379.33 0L379.33 0 374.53 0Q364.83-5.2 356.73-14.15L356.73-14.15Q357.13-10.8 357.13-7.28 357.13-3.75 356.88 0L356.88 0 351.03 0Q352.03-6.15 352.03-11.38 352.03-16.6 351.53-19.65L351.53-19.65Q349.53-22.65 348.38-25L348.38-25 362.58-25Q364.68-21.4 368.3-17.57 371.93-13.75 375.23-11.6L375.23-11.6Q375.23-18.9 373.58-25L373.58-25ZM398.72-26.15L398.72-26.15Q408.37-26.15 414.42-23.75L414.42-23.75Q416.57-19.45 416.57-15.05L416.57-15.05Q416.57-9.4 412.72-5.25L412.72-5.25Q407.12 0.7 397.57 0.7L397.57 0.7Q394.27 0.7 388.62-0.05L388.62-0.05Q386.67-10.1 386.67-18.6L386.67-18.6Q386.67-21.55 386.97-25L386.97-25Q395.02-26.15 398.72-26.15ZM400.22-22.4L400.22-22.4Q399.32-13 399.32-8.93 399.32-4.85 399.47-2.3L399.47-2.3Q402.17-3.75 403.7-7.18 405.22-10.6 405.22-14.13 405.22-17.65 403.95-19.9 402.67-22.15 400.22-22.4ZM453.37-0.4L453.37-0.4 453.37 0 441.77 0Q441.57-2.75 440.92-5.9L440.92-5.9Q437.42-2.4 433.92 0L433.92 0 422.27 0Q421.92-2.05 421.92-5.43 421.92-8.8 422.92-12.2L422.92-12.2Q426.52-13.25 429.85-15.75 433.17-18.25 434.67-21.15L434.67-21.15Q433.27-23.35 431.82-25L431.82-25 448.42-25Q453.37-14.15 453.37-0.4ZM440.02-9.55L440.02-9.55Q438.77-13.85 436.62-17.95L436.62-17.95Q434.27-11.05 433.92-4.9L433.92-4.9Q437.62-6.9 440.02-9.55ZM480.62-25L486.57-25Q486.87-19.75 486.87-13.93 486.87-8.1 486.37 0L486.37 0 481.57 0Q471.87-5.2 463.77-14.15L463.77-14.15Q464.17-10.8 464.17-7.28 464.17-3.75 463.92 0L463.92 0 458.07 0Q459.07-6.15 459.07-11.38 459.07-16.6 458.57-19.65L458.57-19.65Q456.57-22.65 455.42-25L455.42-25 469.62-25Q471.72-21.4 475.34-17.57 478.97-13.75 482.27-11.6L482.27-11.6Q482.27-18.9 480.62-25L480.62-25ZM512.47-21.95L512.47-21.95Q510.71-22.25 509.09-22.25 507.46-22.25 505.16-21.7L505.16-21.7Q504.41-18.55 504.41-15.55L504.41-15.55Q504.41-7.8 511.31-3.65L511.31-3.65Q515.91-6.7 519.62-11.25L519.62-11.25Q519.76-9.25 519.87-5.15L519.87-5.15Q516.16-2.25 512.31-0.6 508.46 1.05 502.71 1.05L502.71 1.05 501.56 1.05Q497.06-0.9 494.49-4.7 491.91-8.5 491.91-12.7L491.91-12.7Q491.91-18.3 496.51-22.23 501.12-26.15 509.87-26.15L509.87-26.15Q514.76-26.15 520.12-24.9L520.12-24.9Q519.31-21.75 518.12-18.95L518.12-18.95Q514.97-18.65 511.62-18.65L511.62-18.65Q512.12-20.05 512.47-21.95ZM542.36-14.95L542.36-14.95 547.06-14.65Q547.76-14.65 548.11-14.7L548.11-14.7 545.76-10.3 545.31-10.3Q544.36-10.3 542.61-10.83 540.86-11.35 540.11-11.35L540.11-11.35Q538.06-11.35 536.86-8.7L536.86-8.7Q536.66-6.25 536.56-3.8L536.56-3.8Q539.16-3.3 540.66-3.3L540.66-3.3 541.11-3.3Q543.26-3.3 544.54-4.25 545.81-5.2 546.36-7.65L546.36-7.65 552.36-7.4Q551.61-3.1 550.36 0L550.36 0 525.81 0Q524.81-6.75 524.81-13.4 524.81-20.05 525.51-25L525.51-25 552.31-25Q551.41-19.6 550.71-17.4L550.71-17.4Q547.76-17.25 545.31-17.2L545.31-17.2Q545.71-18.35 545.71-19.35L545.71-19.35Q545.71-21.75 542.11-21.75L542.11-21.75Q540.76-21.75 539.11-21.45L539.11-21.45Q538.01-16.7 537.41-13.1L537.41-13.1Q539.41-14.95 542.36-14.95ZM607.16-0.4L607.16-0.4 607.16 0 595.56 0Q595.36-2.75 594.71-5.9L594.71-5.9Q591.21-2.4 587.71 0L587.71 0 576.06 0Q575.71-2.05 575.71-5.43 575.71-8.8 576.71-12.2L576.71-12.2Q580.31-13.25 583.63-15.75 586.96-18.25 588.46-21.15L588.46-21.15Q587.06-23.35 585.61-25L585.61-25 602.21-25Q607.16-14.15 607.16-0.4ZM593.81-9.55L593.81-9.55Q592.56-13.85 590.41-17.95L590.41-17.95Q588.06-11.05 587.71-4.9L587.71-4.9Q591.41-6.9 593.81-9.55ZM622.75-7.25L622.75-6.25Q622.75-3.4 623 0L623 0 612 0Q609.95-7.95 609.95-16.9L609.95-16.9Q609.95-21.45 610.5-25L610.5-25 637.6-25Q639.05-19.35 639.2-11.55L639.2-11.55Q631.8-8.25 622.75-7.25L622.75-7.25ZM622.8-10.7L622.8-10.7Q626-11.1 628.15-12.3L628.15-12.3Q627.35-17.6 623.85-21.7L623.85-21.7Q623.05-16.75 622.8-10.7ZM656-7.25L656-6.25Q656-3.4 656.25 0L656.25 0 645.25 0Q643.2-7.95 643.2-16.9L643.2-16.9Q643.2-21.45 643.75-25L643.75-25 670.85-25Q672.3-19.35 672.45-11.55L672.45-11.55Q665.05-8.25 656-7.25L656-7.25ZM656.05-10.7L656.05-10.7Q659.25-11.1 661.4-12.3L661.4-12.3Q660.6-17.6 657.1-21.7L657.1-21.7Q656.3-16.75 656.05-10.7Z" opacity="1" transform="matrix(1,0,0,1,0,0)" fill="#ffffff" class="undefined-text-1" data-fill-palette-color="quaternary" id="text-1"></path></svg></g></svg></g></svg></g></svg></g><g transform="matrix(1,0,0,1,79.75756936487717,0)"><svg viewBox="0 0 53.643302497402765 60.58944794094317" height="60.58944794094317" width="53.643302497402765"><g><svg xmlns="http://www.w3.org/2000/svg" data-name="Glyph Icon" viewBox="7.210000038146973 4 49.58000183105469 56" x="0" y="0" height="60.58944794094317" width="53.643302497402765" class="icon-icon-0" data-fill-palette-color="quaternary" id="icon-0"><path d="M49.13 20.84l-16-9.26V4L55.7 17.05ZM32 50.52L16 41.26V22.74l16-9.26 16 9.26V41.26ZM30.91 11.58l-16 9.26L8.3 17.05 30.91 4ZM13.77 22.74V41.26L7.21 45.05V19Zm1.1 20.42l16 9.26V60L8.3 47Zm18.22 9.26l16-9.26L55.7 47 33.09 60ZM50.23 41.26V22.74L56.79 19v26.1Z" fill="#ffffff" data-fill-palette-color="quaternary"></path></svg></g></svg></g><g></g></svg></g></svg></g></svg></g></svg></g><defs></defs></svg><rect width="342.85155851775386" height="342.85155851775386" fill="none" stroke="none" visibility="hidden"></rect></g></svg></g></svg>